<svg xmlns="http://www.w3.org/2000/svg" version="1.1" xmlns:xlink="http://www.w3.org/1999/xlink" xmlns:svgjs="http://svgjs.dev/svgjs" viewBox="0 0 800 400"><path d="M49.615196228027344,42.23268508911133C70.686705271403,64.3502966562907,172.45761108398438,125.92094230651855,176.04425048828125,174.9383544921875C179.63088989257812,223.95576667785645,47.522987365722656,307.1957092285156,71.1350326538086,336.337158203125C94.74707794189453,365.4786071777344,234.17769749959308,352.47703043619794,317.7165222167969,349.78704833984375C401.25534693400067,347.09706624348956,505.41737365722656,343.6598663330078,572.3679809570312,320.197265625C639.3185882568359,296.7346649169922,701.935302734375,250.55668767293295,719.420166015625,209.01144409179688C736.905029296875,167.4662005106608,719.8685048421224,91.84787114461263,677.2771606445312,70.9258041381836C634.6858164469401,50.00373713175456,536.650998433431,87.36456871032715,463.8721008300781,83.47904205322266C391.0932032267253,79.59351539611816,253.30645751953125,31.622207641601562,240.60377502441406,47.61264419555664C227.90109252929688,63.60308074951172,344.1679967244466,149.53299522399902,387.656005859375,179.42166137695312C431.1440149943034,209.31032752990723,496.74964396158856,198.6998545328776,501.5318298339844,226.94464111328125C506.3140157063802,255.1894276936849,459.0899149576823,323.7838999430339,416.34912109375,348.890380859375C373.6083272298177,373.9968617757161,290.9661687215169,391.182866414388,245.08706665039062,377.5835266113281C199.2079645792643,363.98418680826825,167.22709147135416,303.6090723673503,141.0745086669922,267.2943420410156C114.9219258626302,230.979611714681,96.98872629801433,177.6283442179362,88.17156982421875,159.6951446533203" fill="none" stroke-width="3" stroke="#ff0000" stroke-linecap="round"></path><defs><linearGradient id="SvgjsLinearGradient1004"><stop stop-color="hsl(37, 99%, 67%)" offset="0"></stop><stop stop-color="hsl(316, 73%, 52%)" offset="1"></stop></linearGradient></defs></svg>