<svg xmlns="http://www.w3.org/2000/svg" version="1.1" xmlns:xlink="http://www.w3.org/1999/xlink" xmlns:svgjs="http://svgjs.dev/svgjs" viewBox="0 0 800 400"><path d="M52.30517578125,347.0970764160156C57.2368049621582,342.613774617513,73.67556762695312,326.6233266194661,81.89495086669922,320.197265625C90.11433410644531,313.7712046305339,92.5054308573405,310.4834696451823,101.62147521972656,308.54071044921875C110.73751958211263,306.5979512532552,125.53241221110027,309.2879282633464,136.59121704101562,308.54071044921875C147.650021870931,307.7934926350911,156.3177261352539,304.3562927246094,167.97430419921875,304.0574035644531C179.6308822631836,303.7585144042969,195.17299143473306,309.7362416585286,206.5306854248047,306.74737548828125C217.8883794148763,303.7585093180339,232.0854975382487,298.67744700113934,236.12046813964844,286.12420654296875C240.1554387410482,273.57096608479816,235.0743662516276,246.2228240966797,230.74050903320312,231.4279327392578C226.40665181477866,216.63304138183594,219.98058573404947,207.51700337727866,210.11732482910156,197.3548583984375C200.25406392415366,187.19271341959634,177.2397893269857,179.869992574056,171.56094360351562,170.45506286621094C165.88209788004556,161.04013315836588,168.870969136556,147.14189910888672,176.04425048828125,140.8652801513672C183.2175318400065,134.58866119384766,201.00128682454428,129.05926513671875,214.6006317138672,132.79534912109375C228.1999766031901,136.53143310546875,246.7309595743815,154.91295878092447,257.64031982421875,163.2817840576172C268.54968007405597,171.6506093343099,268.99799092610675,174.63947550455728,280.0567932128906,183.00830078125C291.1155954996745,191.37712605794272,310.0948994954427,206.62034352620444,323.9931335449219,213.49473571777344C337.89136759440106,220.36912790934244,352.0885009765625,222.3118896484375,363.4461975097656,224.25465393066406C374.80389404296875,226.19741821289062,382.57494099934894,227.54241434733072,392.1393127441406,225.1513214111328C401.7036844889323,222.7602284749349,413.80859375,214.39139556884766,420.8324279785156,209.90809631347656C427.85626220703125,205.42479705810547,428.75291442871094,203.0337117513021,434.2823181152344,198.25152587890625C439.8117218017578,193.4693400065104,447.58278401692706,186.44549814860025,454.00885009765625,181.21498107910156C460.43491617838544,175.98446400960287,465.3665517171224,172.84615580240884,472.8387145996094,166.86842346191406C480.3108774820964,160.89069112141928,489.7257843017578,150.13077290852866,498.8418273925781,145.3485870361328C507.95787048339844,140.56640116373697,517.6717071533203,139.66974131266275,527.5349731445312,138.17530822753906C537.3982391357422,136.68087514241537,546.6637369791666,133.24368031819662,558.0214233398438,136.38198852539062C569.3791097005209,139.52029673258463,587.312266031901,148.18800099690756,595.6810913085938,157.00515747070312C604.0499165852865,165.8223139444987,608.9815877278646,177.03057352701822,608.234375,189.28492736816406C607.4871622721354,201.5392812093099,603.302724202474,216.93193817138672,591.1978149414062,230.53128051757812C579.0929056803385,244.13062286376953,552.9403432210287,260.8682810465495,535.6049194335938,270.8809814453125C518.2694956461588,280.8936818440755,500.93406168619794,284.4803059895833,487.1852722167969,290.60748291015625C473.4364827473958,296.7346598307292,464.4698791503906,300.6202036539714,453.1121826171875,307.64404296875C441.7544860839844,314.6678822835286,423.6718343098958,325.7266845703125,419.0390930175781,332.7505187988281C414.40635172526044,339.77435302734375,415.3030293782552,344.8554178873698,425.31573486328125,349.78704833984375C435.3284403483073,354.7186787923177,462.8260091145833,359.50087483723956,479.1153259277344,362.3403015136719C495.40464274088544,365.1797281901042,507.9578603108724,365.7775065104167,523.0516357421875,366.8236083984375C538.1454111735026,367.8697102864583,552.6414388020834,368.9158020019531,569.677978515625,368.6169128417969C586.7145182291666,368.3180236816406,608.6826680501302,368.46746826171875,625.2708740234375,365.0302734375C641.8590799967448,361.59307861328125,657.2517395019531,354.4198048909505,669.2072143554688,347.9937438964844C681.1626892089844,341.56768290201825,689.0832214355469,335.4405110677083,697.0037231445312,326.4739074707031C704.9242248535156,317.50730387369794,712.5458170572916,305.55181884765625,716.730224609375,294.1941223144531C720.9146321614584,282.83642578125,721.0640665690104,271.77762603759766,722.1101684570312,258.3277282714844C723.1562703450521,244.8778305053711,722.8573913574219,226.64574686686197,723.0068359375,213.49473571777344C723.1562805175781,200.3437245686849,723.7540486653646,193.7682202657064,723.0068359375,179.42166137695312C722.2596232096354,165.07510248819986,721.3629862467448,141.7619425455729,718.5235595703125,127.4153823852539C715.6841328938802,113.06882222493489,713.2929992675781,103.8033332824707,705.9702758789062,93.34230041503906C698.6475524902344,82.88126754760742,691.9226379394531,72.2707945505778,674.5872192382812,64.64918518066406C657.2518005371094,57.02757581075033,625.4203694661459,52.245387395222984,601.957763671875,47.61264419555664C578.4951578776041,42.9799009958903,557.5730794270834,37.59994252522787,533.8115844726562,36.852725982666016C510.0500895182292,36.105509440104164,479.41419982910156,39.692148208618164,459.3887939453125,43.12934494018555C439.36338806152344,46.56654167175293,426.5112762451172,49.10708045959473,413.6591491699219,57.47590637207031C400.80702209472656,65.8447322845459,392.737065633138,79.14518483479817,382.2760314941406,93.34230041503906C371.81499735514325,107.53941599527995,359.71009826660156,126.81760660807292,350.8929443359375,142.65859985351562C342.07579040527344,158.49959309895834,340.58135986328125,167.9145253499349,329.37310791015625,188.3882598876953C318.16485595703125,208.86199442545572,293.3572489420573,246.82058970133463,283.6434326171875,265.5010070800781C273.9296162923177,284.1814244588216,279.60847727457684,281.79034423828125,271.0902099609375,300.47076416015625C262.57194264729816,319.15118408203125,246.2826156616211,361.89197794596356,232.53382873535156,377.5835266113281C218.78504180908203,393.2750752766927,207.27790451049805,392.37840779622394,188.5974884033203,394.62005615234375C169.91707229614258,396.86170450846356,137.33842849731445,392.8267364501953,120.45133209228516,391.0334167480469C103.56423568725586,389.24009704589844,94.74707667032878,385.50401306152344,87.27490997314453,383.8601379394531C79.80274327596028,382.2162628173828,77.5610949198405,381.6184946695964,75.61833190917969,381.170166015625" fill="none" stroke-width="5" stroke="#fe181e" stroke-linecap="round"></path><defs><linearGradient id="SvgjsLinearGradient1006"><stop stop-color="hsl(37, 99%, 67%)" offset="0"></stop><stop stop-color="hsl(316, 73%, 52%)" offset="1"></stop></linearGradient></defs></svg>