<svg xmlns="http://www.w3.org/2000/svg" version="1.1" xmlns:xlink="http://www.w3.org/1999/xlink" xmlns:svgjs="http://svgjs.dev/svgjs" viewBox="0 0 800 400"><path d="M37.958614349365234,232.32460021972656C43.637460708618164,229.93350728352866,60.076225916544594,225.1513214111328,72.03169250488281,217.97804260253906C83.98715909322102,210.8047637939453,99.08093770345052,198.40097045898438,109.69141387939453,189.28492736816406C120.30189005533855,180.16888427734375,120.30188624064128,169.11007436116537,135.69454956054688,163.2817840576172C151.08721288045248,157.453493754069,186.0569585164388,155.8096186319987,202.04739379882812,154.315185546875C218.03782908121744,152.8207524617513,218.33670552571616,150.5791041056315,231.6371612548828,154.315185546875C244.93761698404947,158.0512669881185,266.15857696533203,168.96062215169272,281.8501281738281,176.73167419433594C297.5416793823242,184.50272623697916,313.0837860107422,196.30875396728516,325.7864685058594,200.94149780273438C338.48915100097656,205.5742416381836,345.0646565755208,203.93036397298178,358.06622314453125,204.52813720703125C371.0677897135417,205.12591044108072,390.19652303059894,207.36755879720053,403.7958679199219,204.52813720703125C417.3952128092448,201.68871561686197,422.1774190266927,194.66488647460938,439.66229248046875,187.49160766601562C457.1471659342448,180.31832885742188,489.12803141276044,166.42009480794272,508.7051086425781,161.48846435546875C528.2821858723959,156.55683390299478,540.0882212320963,156.10850524902344,557.124755859375,157.90182495117188C574.1612904866537,159.6951446533203,592.243906656901,167.1673100789388,610.92431640625,172.24838256835938C629.604726155599,177.32945505777994,647.9862569173177,183.45662943522134,669.2072143554688,188.3882598876953C690.4281717936198,193.31989034016928,719.8685302734375,199.5965143839518,738.2500610351562,201.83816528320312C756.631591796875,204.07981618245444,772.6220092773438,201.83816528320312,779.4963989257812,201.83816528320312" fill="none" stroke-width="6" stroke="#fe181e" stroke-linecap="round"></path><defs><linearGradient id="SvgjsLinearGradient1011"><stop stop-color="hsl(37, 99%, 67%)" offset="0"></stop><stop stop-color="hsl(316, 73%, 52%)" offset="1"></stop></linearGradient></defs></svg>