<svg xmlns="http://www.w3.org/2000/svg" version="1.1" xmlns:xlink="http://www.w3.org/1999/xlink" xmlns:svgjs="http://svgjs.dev/svgjs" viewBox="0 0 800 400"><path d="M102.51813507080078,62.85586929321289C107.44976425170898,65.84473609924316,125.83128992716472,70.62692324320476,132.10791015625,80.78907012939453C138.3845303853353,90.9512170155843,139.87896982828775,110.52829360961914,140.1778564453125,123.82875061035156C140.47674306233725,137.12920761108398,134.4990030924479,146.84302520751953,133.90122985839844,160.59181213378906C133.30345662434897,174.3405990600586,127.77406056722005,192.4232432047526,136.59121704101562,206.32147216796875C145.4083735148112,220.2197011311849,172.90593973795572,239.34844462076822,186.80416870117188,243.98118591308594C200.70239766438803,248.61392720540366,206.53069051106772,239.4978790283203,219.9805908203125,234.117919921875C233.43049112955728,228.7379608154297,257.04253641764325,223.05912272135416,267.5035705566406,211.70143127441406C277.964604695638,200.34373982747397,276.76906331380206,178.8238983154297,282.7467956542969,165.97177124023438C288.7245279947917,153.11964416503906,291.8628285725911,145.19914627075195,303.3699645996094,134.5886688232422C314.8771006266276,123.97819137573242,336.9947204589844,104.99888737996419,351.78961181640625,102.30890655517578C366.5845031738281,99.61892573038737,380.9310658772786,109.33273951212566,392.1393127441406,118.44878387451172C403.3475596110026,127.56482823689778,410.5208231608073,140.86529159545898,419.0390930175781,157.0051727294922C427.55736287434894,173.1450538635254,429.50014241536456,203.78093465169272,443.2489318847656,215.28807067871094C456.9977213541667,226.79520670572916,486.7369435628255,226.64576212565103,501.5318298339844,226.04798889160156C516.3267161051432,225.4502156575521,519.1661224365234,220.07025909423828,532.0182495117188,211.70143127441406C544.8703765869141,203.33260345458984,562.3552652994791,190.33102544148764,578.6445922851562,175.83502197265625C594.9339192708334,161.33901850382486,613.9132181803385,137.57753626505533,629.7542114257812,124.72541046142578C645.595204671224,111.87328465779622,654.8606974283854,94.5378532409668,673.6905517578125,98.7222671508789C692.5204060872396,102.90668106079102,728.5362243652344,132.19758224487305,742.7333374023438,149.83189392089844C756.9304504394531,167.46620559692383,752.1482747395834,186.146608988444,758.8732299804688,204.52813720703125C765.5981852213541,222.9096654256185,779.048095703125,250.85557556152344,783.0830688476562,260.1210632324219" fill="none" stroke-width="8" stroke="#fe181e" stroke-linecap="round" transform="matrix(-0.4999999999999999,0.8660254037844389,-0.8660254037844389,-0.4999999999999999,804.0540245144871,-141.2438711561092)"></path><defs><linearGradient id="SvgjsLinearGradient1000"><stop stop-color="hsl(37, 99%, 67%)" offset="0"></stop><stop stop-color="hsl(316, 73%, 52%)" offset="1"></stop></linearGradient></defs></svg>