<svg xmlns="http://www.w3.org/2000/svg" version="1.1" xmlns:xlink="http://www.w3.org/1999/xlink" xmlns:svgjs="http://svgjs.dev/svgjs" viewBox="0 0 800 400"><path d="M27.198694229125977,287.9175109863281C27.945911089579266,274.61705525716144,25.405375480651855,233.37069702148438,31.681995391845703,208.11477661132812C37.95861530303955,182.85885620117188,52.75350379943848,157.15461095174155,64.85841369628906,136.38198852539062C76.96332359313965,115.60936609903972,89.06823476155598,94.6872927347819,104.31145477294922,83.47904205322266C119.55467478434245,72.2707913716634,141.3734016418457,68.08638127644856,156.31773376464844,69.13248443603516C171.26206588745117,70.17858759562175,184.56251780192056,80.34073130289714,193.97744750976562,89.75566101074219C203.3923772176107,99.17059071858723,209.3701146443685,110.82717386881511,212.80731201171875,125.62206268310547C216.244509379069,140.41695149739584,215.64673614501953,162.38511530558267,214.6006317138672,178.52499389648438C213.55452728271484,194.66487248738608,208.47344970703125,208.56310526529947,206.5306854248047,222.46133422851562C204.58792114257812,236.35956319173178,201.300168355306,248.16557820638022,202.9440460205078,261.91436767578125C204.58792368570963,275.6631571451823,206.3812484741211,294.6424814860026,216.39395141601562,304.9540710449219C226.40665435791016,315.2656606038411,248.97259012858072,322.14002990722656,263.020263671875,323.7839050292969C277.06793721516925,325.4277801513672,288.1267547607422,321.5422719319661,300.67999267578125,314.81732177734375C313.2332305908203,308.0923716227214,329.67197672526044,295.3896713256836,338.3396911621094,283.4342041015625C347.0074055989583,271.4787368774414,346.2602132161458,257.5805180867513,352.686279296875,243.0845184326172C359.1123453776042,228.58851877848306,367.9294891357422,211.4025395711263,376.8960876464844,196.4582061767578C385.86268615722656,181.5138727823893,396.92149861653644,163.43122100830078,406.4858703613281,153.41851806640625C416.0502421061198,143.40581512451172,423.2235107421875,141.4630610148112,434.2823181152344,136.38198852539062C445.34112548828125,131.30091603597006,453.709966023763,122.33430989583333,472.8387145996094,122.93208312988281C491.96746317545575,123.5298563639323,533.2138214111328,133.0942357381185,549.0548095703125,139.9686279296875C564.8957977294922,146.8430201212565,563.4013468424479,153.1196314493815,567.8846435546875,164.17843627929688C572.3679402669271,175.23724110921225,572.3679504394531,190.48046366373697,575.95458984375,206.3214569091797C579.5412292480469,222.1624501546224,581.6334228515625,244.57895151774088,589.4044799804688,259.2243957519531C597.175537109375,273.86983998616535,610.1771341959635,287.6186167399089,622.5809326171875,294.1941223144531C634.9847310384115,300.7696278889974,651.2740376790365,301.516850789388,663.8272705078125,298.67742919921875C676.3805033365885,295.8380076090495,686.990966796875,288.06695556640625,697.9003295898438,277.1575927734375C708.8096923828125,266.24822998046875,723.6045939127604,245.02727508544922,729.283447265625,233.22125244140625C734.9623006184896,221.41522979736328,727.4901529947916,222.9096654256185,731.9734497070312,206.3214569091797C736.4567464192709,189.73324839274088,750.8032735188802,154.1657371520996,756.1832275390625,133.69200134277344C761.5631815592448,113.21826553344727,764.1037292480469,98.12448819478352,764.253173828125,83.47904205322266C764.4026184082031,68.83359591166179,763.6553955078125,55.383697191874184,757.0798950195312,45.8193244934082C750.50439453125,36.25495179494222,742.4344787597656,29.82888889312744,724.8001708984375,26.092805862426758C707.1658630371094,22.356722831726074,674.5872090657552,23.85115623474121,651.2740478515625,23.4028263092041C627.9608866373698,22.954496383666992,612.1198933919271,20.563403129577637,584.9212036132812,23.4028263092041C557.7225138346354,26.242249488830566,513.63671875,35.65717919667562,488.0819091796875,40.43936538696289C462.527099609375,45.22155157725016,451.16941833496094,46.417097091674805,431.59234619140625,52.095943450927734C412.01527404785156,57.774789810180664,389.4493357340495,68.5347105662028,370.6194763183594,74.51244354248047C351.78961690266925,80.49017651875813,330.4192148844401,85.2723617553711,318.6131896972656,87.96234130859375C306.8071645100911,90.6523208618164,303.9677378336589,89.1578877766927,299.7833251953125,90.6523208618164C295.5989125569661,92.14675394694011,298.1394551595052,94.53784561157227,293.5067138671875,96.92893981933594C288.8739725748698,99.32003402709961,279.3096008300781,102.15946197509766,271.98687744140625,104.99888610839844C264.6641540527344,107.83831024169922,258.0886459350586,110.07995859781902,249.57037353515625,113.96548461914062C241.0521011352539,117.85101064046223,234.17770131429037,121.73653666178386,220.8772430419922,128.31204223632812C207.576784769694,134.8875478108724,183.66585286458334,143.70470174153647,169.7676239013672,153.41851806640625C155.86939493815103,163.13233439127603,153.47830454508463,166.4200897216797,137.4878692626953,186.59494018554688C121.49743398030598,206.76979064941406,87.42435455322266,251.90167744954428,73.82501220703125,274.4676208496094C60.225669860839844,297.0335642496745,60.82344500223795,307.0462697347005,55.891815185546875,321.9906005859375C50.9601853688558,336.9349314371745,46.17799695332845,357.1097717285156,44.235233306884766,364.13360595703125" fill="none" stroke-width="4" stroke="#fe181e" stroke-linecap="round"></path><defs><linearGradient id="SvgjsLinearGradient1010"><stop stop-color="hsl(37, 99%, 67%)" offset="0"></stop><stop stop-color="hsl(316, 73%, 52%)" offset="1"></stop></linearGradient></defs></svg>